<?xml version="1.0" encoding="UTF-8"?>
<svg width="352px" height="400px" viewBox="0 0 352 400" version="1.1" xmlns="http://www.w3.org/2000/svg" xmlns:xlink="http://www.w3.org/1999/xlink">
    <!-- Generator: Sketch 48.2 (47327) - http://www.bohemiancoding.com/sketch -->
    <title>Avatar / Default</title>
    <desc>Created with Sketch.</desc>
    <defs>
        <path d="M279.622554,307.142857 L-4.20197471,307.142857 C-0.253749488,197.868196 21.1945678,0 137.71029,0 C254.226012,0 275.674329,197.868196 279.622554,307.142857 Z" id="path-1"></path>
        <path d="M253.390306,104.655591 C257.002207,108.056985 260.447987,111.74529 263.735286,115.692269 C262.589978,119.08001 259.388155,121.518519 255.617424,121.518519 C250.885348,121.518519 247.049242,117.678117 247.049242,112.940741 C247.049242,108.974573 249.738034,105.637109 253.390306,104.655591 Z M217.831908,83.0697723 C222.584389,84.6214483 227.138904,86.5606576 231.503699,88.8569232 C233.198382,91.2075116 234.19697,94.0944163 234.19697,97.2148148 C234.19697,105.110441 227.80346,111.511111 219.916667,111.511111 C212.029873,111.511111 205.636364,105.110441 205.636364,97.2148148 C205.636364,90.028122 210.933294,84.0799793 217.831908,83.0697723 Z M279.550044,138.589925 C284.17569,146.583541 288.392788,155.166479 292.237423,164.205378 C290.255859,165.24744 287.999737,165.837037 285.606061,165.837037 C277.719267,165.837037 271.325758,159.436367 271.325758,151.540741 C271.325758,145.812524 274.690912,140.871162 279.550044,138.589925 Z M327.078456,323.505601 C327.767559,330.916515 328.358631,338.201279 328.865616,345.308351 C326.121637,348.348709 322.152056,350.259259 317.736742,350.259259 C309.455609,350.259259 302.742424,343.538556 302.742424,335.248148 C302.742424,326.95774 309.455609,320.237037 317.736742,320.237037 C321.269021,320.237037 324.516026,321.459808 327.078456,323.505601 Z M142.089015,151.540741 C133.807882,151.540741 127.094697,144.820037 127.094697,136.52963 C127.094697,128.239222 133.807882,121.518519 142.089015,121.518519 C150.370148,121.518519 157.083333,128.239222 157.083333,136.52963 C157.083333,144.820037 150.370148,151.540741 142.089015,151.540741 Z M118.526515,185.851852 C113.794439,185.851852 109.958333,182.01145 109.958333,177.274074 C109.958333,172.536698 113.794439,168.696296 118.526515,168.696296 C123.258591,168.696296 127.094697,172.536698 127.094697,177.274074 C127.094697,182.01145 123.258591,185.851852 118.526515,185.851852 Z M294.174242,287.355556 C289.442166,287.355556 285.606061,283.515154 285.606061,278.777778 C285.606061,274.040402 289.442166,270.2 294.174242,270.2 C298.906319,270.2 302.742424,274.040402 302.742424,278.777778 C302.742424,283.515154 298.906319,287.355556 294.174242,287.355556 Z M118.526515,355.977778 C113.794439,355.977778 109.958333,352.137376 109.958333,347.4 C109.958333,342.662624 113.794439,338.822222 118.526515,338.822222 C123.258591,338.822222 127.094697,342.662624 127.094697,347.4 C127.094697,352.137376 123.258591,355.977778 118.526515,355.977778 Z M65.6893939,304.511111 C60.9573178,304.511111 57.1212121,300.670709 57.1212121,295.933333 C57.1212121,291.195957 60.9573178,287.355556 65.6893939,287.355556 C70.4214701,287.355556 74.2575758,291.195957 74.2575758,295.933333 C74.2575758,300.670709 70.4214701,304.511111 65.6893939,304.511111 Z M85.6818182,315.948148 C82.5271007,315.948148 79.969697,313.38788 79.969697,310.22963 C79.969697,307.071379 82.5271007,304.511111 85.6818182,304.511111 C88.8365356,304.511111 91.3939394,307.071379 91.3939394,310.22963 C91.3939394,313.38788 88.8365356,315.948148 85.6818182,315.948148 Z M97.1060606,367.414815 C93.9513432,367.414815 91.3939394,364.854547 91.3939394,361.696296 C91.3939394,358.538046 93.9513432,355.977778 97.1060606,355.977778 C100.260778,355.977778 102.818182,358.538046 102.818182,361.696296 C102.818182,364.854547 100.260778,367.414815 97.1060606,367.414815 Z M277.037879,315.948148 C273.883161,315.948148 271.325758,313.38788 271.325758,310.22963 C271.325758,307.071379 273.883161,304.511111 277.037879,304.511111 C280.192596,304.511111 282.75,307.071379 282.75,310.22963 C282.75,313.38788 280.192596,315.948148 277.037879,315.948148 Z M115.670455,157.259259 C112.515737,157.259259 109.958333,154.698991 109.958333,151.540741 C109.958333,148.38249 112.515737,145.822222 115.670455,145.822222 C118.825172,145.822222 121.382576,148.38249 121.382576,151.540741 C121.382576,154.698991 118.825172,157.259259 115.670455,157.259259 Z M65.6893939,355.977778 C57.8026004,355.977778 51.4090909,349.577108 51.4090909,341.681481 C51.4090909,333.785855 57.8026004,327.385185 65.6893939,327.385185 C73.5761875,327.385185 79.969697,333.785855 79.969697,341.681481 C79.969697,349.577108 73.5761875,355.977778 65.6893939,355.977778 Z" id="path-3"></path>
        <path d="M4.79771315,32.956129 C-0.0618375118,30.1462248 0.0227260488,20.8880251 4.98659115,12.2773614 C9.95045624,3.66669758 17.9139082,-1.03574714 22.7734588,1.77415711 C25.5875334,3.4013199 27.5553389,10.2198934 33.4347472,18.4506261 C37.7083331,24.4333273 47.4325298,31.4659449 44.5746888,36.3140799 C41.8124936,40.9999584 30.0429676,35.0424413 23.2208795,34.1327564 C13.2741392,32.8064178 7.68024537,34.6228756 4.79771315,32.956129 Z M274.668829,32.2281232 C271.786297,33.8948698 266.192403,32.0784121 256.245663,33.4047506 C249.423575,34.3144355 237.654049,40.2719526 234.891854,35.5860742 C232.034013,30.7379391 241.75821,23.7053215 246.031795,17.7226203 C251.911204,9.49188763 253.879009,2.67331412 256.693084,1.04615132 C261.552634,-1.76375292 269.516086,2.9386918 274.479951,11.5493556 C279.443817,20.1600194 279.52838,29.418219 274.668829,32.2281232 Z" id="path-5"></path>
        <path d="M22.7111223,76.6536659 L22.8437274,76.2856239 C22.8437274,77.2714322 22.8538894,78.2114081 22.8742136,79.1055515 L23.3226711,85.8475801 C23.7830881,89.4053447 24.5754604,91.4659426 25.699788,92.0293739 C27.5974997,92.9803691 31.2815375,93.9313643 33.9591348,94.4625 L34.2727273,94.4625 L34.2727273,103.05 L0,103.05 L0,94.4625 L0.308834958,94.4625 C2.98643231,93.9313643 6.6704701,92.9803691 8.56818182,92.0293739 C9.70058946,91.4618935 10.4962534,89.37565 10.9551738,85.7706436 L11.3912003,79.2154987 C11.4132284,78.2885487 11.4242424,77.3119237 11.4242424,76.2856239 L11.5608636,76.6648124 L15.3382773,19.8758562 C10.6756805,19.027044 7.14015152,14.9367114 7.14015152,10.01875 C7.14015152,4.48554716 11.6156081,1.01643287e-15 17.1363636,0 C22.6571191,-1.01643287e-15 27.1325758,4.48554716 27.1325758,10.01875 C27.1325758,14.9367114 23.5970467,19.027044 18.93445,19.8758562 L22.7111223,76.6536659 Z" id="path-7"></path>
        <path d="M92.8219697,90.09 C91.712282,85.4959329 90.2842517,82.1592663 88.5378788,80.08 C87.1455826,78.4223045 83.8135119,76.9923045 78.5416667,75.79 C83.5083728,74.6516473 86.8404435,73.2216473 88.5378788,71.5 C90.2639965,69.7492612 91.6920268,66.4125946 92.8219697,61.49 C93.9322188,66.1366488 95.3602491,69.4733155 97.1060606,71.5 C98.5446688,73.1700571 101.876739,74.6000571 107.102273,75.79 C102.001441,76.951492 98.6693699,78.381492 97.1060606,80.08 C95.3664145,81.9700948 93.9383842,85.3067615 92.8219697,90.09 Z M55.6931818,167.31 C54.8054317,163.634746 53.6630074,160.965413 52.2659091,159.302 C51.1520721,157.975844 48.4864156,156.831844 44.2689394,155.87 C48.2423043,154.959318 50.9079608,153.815318 52.2659091,152.438 C53.6468032,151.037409 54.7892275,148.368076 55.6931818,144.43 C56.5813811,148.147319 57.7238053,150.816652 59.1204545,152.438 C60.2713411,153.774046 62.9369977,154.918046 67.1174242,155.87 C63.0367586,156.799194 60.371102,157.943194 59.1204545,159.302 C57.7287377,160.814076 56.5863135,163.483409 55.6931818,167.31 Z M15.7083333,137.28 C15.1534895,134.982966 14.4394743,133.314633 13.5662879,132.275 C12.8701398,131.446152 11.2041044,130.731152 8.56818182,130.13 C11.0515349,129.560824 12.7175702,128.845824 13.5662879,127.985 C14.4293467,127.109631 15.1433619,125.441297 15.7083333,122.98 C16.2634579,125.303324 16.977473,126.971658 17.8503788,127.985 C18.5696829,128.820029 20.2357182,129.535029 22.8484848,130.13 C20.2980688,130.710746 18.6320335,131.425746 17.8503788,132.275 C16.9805558,133.220047 16.2665406,134.888381 15.7083333,137.28 Z M115.670455,38.61 C115.115611,36.3129665 114.401596,34.6446331 113.528409,33.605 C112.832261,32.7761523 111.166226,32.0611523 108.530303,31.46 C111.013656,30.8908236 112.679691,30.1758236 113.528409,29.315 C114.391468,28.4396306 115.105483,26.7712973 115.670455,24.31 C116.225579,26.6333244 116.939594,28.3016578 117.8125,29.315 C118.531804,30.1500285 120.197839,30.8650285 122.810606,31.46 C120.26019,32.040746 118.594155,32.755746 117.8125,33.605 C116.942677,34.5500474 116.228662,36.2183807 115.670455,38.61 Z M258.473485,52.91 C257.918641,50.6129665 257.204626,48.9446331 256.331439,47.905 C255.635291,47.0761523 253.969256,46.3611523 251.333333,45.76 C253.816686,45.1908236 255.482722,44.4758236 256.331439,43.615 C257.194498,42.7396306 257.908513,41.0712973 258.473485,38.61 C259.028609,40.9333244 259.742625,42.6016578 260.61553,43.615 C261.334834,44.4500285 263.00087,45.1650285 265.613636,45.76 C263.06322,46.340746 261.397185,47.055746 260.61553,47.905 C259.745707,48.8500474 259.031692,50.5183807 258.473485,52.91 Z M285.606061,74.36 C284.71831,70.6847463 283.575886,68.015413 282.178788,66.352 C281.064951,65.0258436 278.399294,63.8818436 274.181818,62.92 C278.155183,62.0093178 280.82084,60.8653178 282.178788,59.488 C283.559682,58.087409 284.702106,55.4180756 285.606061,51.48 C286.49426,55.1973191 287.636684,57.8666524 289.033333,59.488 C290.18422,60.8240457 292.849876,61.9680457 297.030303,62.92 C292.949637,63.8491936 290.283981,64.9931936 289.033333,66.352 C287.641616,67.8640758 286.499192,70.5334092 285.606061,74.36 Z M345.583333,137.28 C344.473646,132.685933 343.045615,129.349266 341.299242,127.27 C339.906946,125.612305 336.574876,124.182305 331.30303,122.98 C336.269736,121.841647 339.601807,120.411647 341.299242,118.69 C343.02536,116.939261 344.45339,113.602595 345.583333,108.68 C346.693582,113.326649 348.121613,116.663316 349.867424,118.69 C351.306032,120.360057 354.638103,121.790057 359.863636,122.98 C354.762804,124.141492 351.430734,125.571492 349.867424,127.27 C348.127778,129.160095 346.699748,132.496761 345.583333,137.28 Z M305.598485,161.59 C305.043641,159.292966 304.329626,157.624633 303.456439,156.585 C302.760291,155.756152 301.094256,155.041152 298.458333,154.44 C300.941686,153.870824 302.607722,153.155824 303.456439,152.295 C304.319498,151.419631 305.033513,149.751297 305.598485,147.29 C306.153609,149.613324 306.867625,151.281658 307.74053,152.295 C308.459834,153.130029 310.12587,153.845029 312.738636,154.44 C310.18822,155.020746 308.522185,155.735746 307.74053,156.585 C306.870707,157.530047 306.156692,159.198381 305.598485,161.59 Z" id="path-9"></path>
    </defs>
    <g id="How-To-Use" stroke="none" stroke-width="1" fill="none" fill-rule="evenodd" transform="translate(-819.000000, -2926.000000)">
        <g id="5" transform="translate(354.000000, 1015.953717)">
            <g id="Avatar-/-Default" transform="translate(457.000000, 1910.000000)">
                <g id="Body-/-01" transform="translate(1.428030, 0.000000)" fill-rule="evenodd" stroke-width="1">
                    <g id="Body" transform="translate(51.409091, 92.857143)">
                        <mask id="mask-2" fill="white">
                            <use xlink:href="#path-1"></use>
                        </mask>
                        <use id="Combined-Shape" fill="#CBD1D5" xlink:href="#path-1"></use>
                        <g id="Color-/-Pink-01" mask="url(#mask-2)" fill="#FFB7E6">
                            <g transform="translate(-51.409091, -92.857143)" id="Color">
                                <rect x="0" y="0" width="377" height="400"></rect>
                            </g>
                        </g>
                    </g>
                </g>
                <g id="Body-color-/-04" transform="translate(1.428030, 14.285714)">
                    <mask id="mask-4" fill="white">
                        <use xlink:href="#path-3"></use>
                    </mask>
                    <use id="Combined-Shape" fill="#E9EFF2" fill-rule="evenodd" xlink:href="#path-3"></use>
                    <g id="Color-/-Pink-02" mask="url(#mask-4)" fill="#F975CB" fill-rule="evenodd">
                        <g transform="translate(0.000000, -14.296296)" id="Color">
                            <rect x="0" y="0" width="377" height="400"></rect>
                        </g>
                    </g>
                </g>
                <g id="Mouth-/-07" transform="translate(111.386364, 291.428571)">
                    <path d="M28.0825553,18.595086 C27.336903,18.3378054 26.9396795,17.5209176 27.1953317,16.770516 C27.4509839,16.0201143 28.2627015,15.6203607 29.0083538,15.8776413 C45.5129346,21.5723974 62.0082776,24.4181818 78.5,24.4181818 C94.9917224,24.4181818 111.487065,21.5723974 127.991646,15.8776413 C128.737298,15.6203607 129.549016,16.0201143 129.804668,16.770516 C130.060321,17.5209176 129.663097,18.3378054 128.917445,18.595086 C112.118995,24.3912389 95.3113079,27.2909091 78.5,27.2909091 C61.6886921,27.2909091 44.8810048,24.3912389 28.0825553,18.595086 Z" id="Path-2-Copy" fill-opacity="0.202587183" fill="#000000" fill-rule="nonzero"></path>
                    <path d="M59.1745584,26.4761696 C62.4223412,26.9002889 65.6703377,27.2176521 68.9185078,27.4282367 C68.083635,30.8273507 65.8822957,33.2125946 63.524358,33.0063018 C61.1439331,32.7980416 59.3793231,30.0164192 59.1745584,26.4761696 Z M34.8334981,21.2976898 C38.0018855,22.2321435 41.1705716,23.0649679 44.3395191,23.7961422 C43.1748954,26.9542295 40.8431595,29.006763 38.5774314,28.607254 C36.1307508,28.1758382 34.5896944,25.0311887 34.8334981,21.2976898 Z M87.941435,27.4406704 C91.2265196,27.2319873 94.5114274,26.9140847 97.796117,26.4869859 C97.7109032,30.2233464 95.9025521,33.2170953 93.4295614,33.433454 C90.9768408,33.6480392 88.6935614,31.0585544 87.941435,27.4406704 Z M112.483643,23.8491507 C115.685633,23.1153365 118.887357,22.2777415 122.088776,21.3363874 C122.469486,25.238118 120.907584,28.5881057 118.376488,29.0344062 C116.02247,29.449483 113.5972,27.2176947 112.483643,23.8491507 Z" id="Combined-Shape" fill="#FFFFFF" fill-rule="evenodd"></path>
                </g>
                <g id="Eyes-/-3-/-01" transform="translate(18.564394, 164.285714)" fill-rule="evenodd" stroke-width="1">
                    <g id="Eyes" transform="translate(85.750000, 38.475000)">
                        <path d="M145.775,51.3 C131.567475,51.3 120.05,39.8161038 120.05,25.65 C120.05,11.4838962 131.567475,0 145.775,0 C159.982525,0 171.5,11.4838962 171.5,25.65 C171.5,39.8161038 159.982525,51.3 145.775,51.3 Z M85.75,51.3 C71.5424748,51.3 60.025,39.8161038 60.025,25.65 C60.025,11.4838962 71.5424748,0 85.75,0 C99.9575252,0 111.475,11.4838962 111.475,25.65 C111.475,39.8161038 99.9575252,51.3 85.75,51.3 Z M25.725,51.3 C11.5174748,51.3 0,39.8161038 0,25.65 C0,11.4838962 11.5174748,0 25.725,0 C39.9325252,0 51.45,11.4838962 51.45,25.65 C51.45,39.8161038 39.9325252,51.3 25.725,51.3 Z" id="Combined-Shape" fill="#FFFFFF"></path>
                        <path d="M145.775,32.775 C141.828465,32.775 138.629167,29.5850288 138.629167,25.65 C138.629167,21.7149712 141.828465,18.525 145.775,18.525 C149.721535,18.525 152.920833,21.7149712 152.920833,25.65 C152.920833,29.5850288 149.721535,32.775 145.775,32.775 Z M85.75,32.775 C81.8034652,32.775 78.6041667,29.5850288 78.6041667,25.65 C78.6041667,21.7149712 81.8034652,18.525 85.75,18.525 C89.6965348,18.525 92.8958333,21.7149712 92.8958333,25.65 C92.8958333,29.5850288 89.6965348,32.775 85.75,32.775 Z M25.725,32.775 C21.7784652,32.775 18.5791667,29.5850288 18.5791667,25.65 C18.5791667,21.7149712 21.7784652,18.525 25.725,18.525 C29.6715348,18.525 32.8708333,21.7149712 32.8708333,25.65 C32.8708333,29.5850288 29.6715348,32.775 25.725,32.775 Z" id="Combined-Shape" fill="#4A4A4A"></path>
                    </g>
                </g>
                <g id="Ears-/-03" transform="translate(0.000000, 28.571429)" fill-rule="evenodd" stroke-width="1">
                    <g id="Ears" transform="translate(49.924528, 134.285714)">
                        <mask id="mask-6" fill="white">
                            <use xlink:href="#path-5"></use>
                        </mask>
                        <use id="Combined-Shape" fill="#D8D8D8" xlink:href="#path-5"></use>
                        <g id="Color-/-Pink-02" mask="url(#mask-6)" fill="#F975CB">
                            <g transform="translate(-51.350943, -127.142857)" id="Color">
                                <rect x="0" y="0" width="378" height="300"></rect>
                            </g>
                        </g>
                        <path d="M6.19727177,27.9878424 C3.20677906,26.2586706 3.7567723,19.6975313 7.42571607,13.3331276 C11.0946598,6.96872396 16.4931998,3.21112614 19.4836925,4.94029798 C22.4741852,6.66946982 21.9241919,13.2306091 18.2552482,19.5950128 C14.5863044,25.9594165 9.18776448,29.7170143 6.19727177,27.9878424 Z" id="Oval-2-Copy" fill-opacity="0.2" fill="#000000" mask="url(#mask-6)"></path>
                        <path d="M272.612387,27.3694984 C269.621894,29.0986702 264.223354,25.3410724 260.55441,18.9766687 C256.885466,12.6122651 256.335473,6.05112574 259.325966,4.3219539 C262.316459,2.59278206 267.714998,6.35037988 271.383942,12.7147835 C275.052886,19.0791872 275.602879,25.6403265 272.612387,27.3694984 Z" id="Oval-2-Copy-2" fill-opacity="0.2" fill="#000000" mask="url(#mask-6)"></path>
                    </g>
                </g>
                <g id="Horns-/-05" fill-rule="evenodd" stroke-width="1">
                    <g id="Horns" transform="translate(171.363636, 0.000000)">
                        <mask id="mask-8" fill="white">
                            <use xlink:href="#path-7"></use>
                        </mask>
                        <use id="Combined-Shape" fill="#D8D8D8" xlink:href="#path-7"></use>
                        <g id="Color-/-Pink-01" mask="url(#mask-8)" fill="#FFB7E6">
                            <g transform="translate(-171.363636, 0.000000)" id="Color">
                                <rect x="0" y="0" width="377" height="229"></rect>
                            </g>
                        </g>
                    </g>
                </g>
                <g id="Mood-/-01" fill-rule="evenodd" stroke-width="1">
                    <g>
                        <mask id="mask-10" fill="white">
                            <use xlink:href="#path-9"></use>
                        </mask>
                        <use id="Combined-Shape" fill="#FFFFFF" xlink:href="#path-9"></use>
                    </g>
                </g>
            </g>
        </g>
    </g>
</svg>